<svg width="241" height="203" viewBox="0 0 241 203" fill="none" xmlns="http://www.w3.org/2000/svg">
<g clip-path="url(#clip0_122_2)">
<path d="M64.0501 50.2123L64.6811 45.4925C51.4294 40.9615 32.7613 46.7511 25.0837 50.2123C5.39534 59.4003 0.157759 87.2891 0 100.085C1.15689 112.461 10.1596 139.039 36.9155 146.34C63.6714 153.639 89.5015 148.332 99.0726 144.766L98.2838 139.575C85.663 143.602 66.7319 144.294 58.844 144.137C39.4081 144.137 24.1371 134.068 18.931 129.033C0.126243 111.161 5.52159 85.1914 10.5698 74.4408C23.9478 48.1356 51.7975 47.328 64.0501 50.2123Z" fill="#1A0705"/>
<path d="M106.487 142.721C106.109 141.966 106.014 138.525 106.014 136.899C119.518 131.236 126.681 126.149 128.573 124.313C129.331 127.46 129.309 129.715 129.204 130.449C123.399 135.609 111.641 140.78 106.487 142.721Z" fill="#1A0705"/>
<path d="M136.303 124.786L135.357 118.335C160.724 97.6939 167.698 67.1513 168.013 54.4602C170.159 53.0758 173.009 52.6248 174.165 52.5723C174.923 84.5412 149.239 114.035 136.303 124.786Z" fill="#1A0705"/>
<path d="M173.219 43.9192C170.19 44.2968 168.171 45.3352 167.54 45.8071C160.472 10.9433 129.362 5.05934 114.691 6.47531C82.5079 11.6357 71.7277 39.3567 70.3605 52.5722C67.2053 66.6686 81.1406 93.2673 88.5029 104.805C86.9882 105.182 84.7165 105.802 83.7699 106.063C65.9747 87.1842 64.8915 56.7676 66.5743 43.9192C70.2343 13.5865 101.86 2.01764 117.215 0.024844C154.825 -0.982055 170.222 28.8682 173.219 43.9192Z" fill="#1A0705"/>
<path d="M94.0244 111.098C90.6164 111.475 88.9236 112.409 88.5029 112.828C94.1818 121.387 106.119 129.925 111.377 133.124C113.649 132.747 115.375 131.184 115.953 130.449C103.206 122.142 96.0225 114.087 94.0244 111.098Z" fill="#1A0705"/>
<path d="M124.629 135.012C122.736 136.9 120.58 138.001 119.739 138.315C150.028 156.188 184.946 152.475 198.618 148.384C197.861 145.616 196.199 144.189 195.463 143.822C159.62 151.751 133.306 141.253 124.629 135.012Z" fill="#1A0705"/>
<path d="M207.137 146.025C206.759 144.64 204.771 142.091 203.824 140.99C230.832 130.04 236.217 105.067 235.533 93.9494C230.611 50.4011 193.097 46.7512 174.954 50.3696C149.587 56.5369 129.467 76.3287 122.578 85.4536C122.073 84.4468 119.949 81.7827 118.95 80.5766C132.832 59.9352 163.859 47.5377 177.636 43.9192C207.421 38.0037 228.645 59.2849 235.533 70.6649C252.824 115.346 223.807 139.522 207.137 146.025Z" fill="#1A0705"/>
<path d="M118.162 93.005C117.278 90.9913 115.164 88.4951 114.218 87.499C107.907 95.4281 103.174 110.312 101.596 116.762C102.354 119.405 104.962 120.695 106.172 121.01C111.346 102.004 116.321 94.4217 118.162 93.005Z" fill="#1A0705"/>
<path d="M111.377 108.109L113.744 102.288C131.287 102.288 142.193 104.805 145.454 106.063L141.983 110.312C129.867 107.039 116.532 107.48 111.377 108.109Z" fill="#1A0705"/>
<path d="M131.886 109.682C129.741 109.179 127.416 109.053 126.522 109.053C130.814 122.898 130.834 133.386 130.309 136.899C132.454 138.41 134.568 138.473 135.357 138.315C136.24 125.1 133.411 113.72 131.886 109.682Z" fill="#1A0705"/>
<path d="M105.383 130.449L100.335 126.674C97.4314 150.21 107.539 168.575 112.955 174.816L116.426 170.882C105.32 161.065 104.437 139.836 105.383 130.449Z" fill="#1A0705"/>
<path d="M102.701 108.581L104.91 102.288C66.795 109.084 43.0681 129.138 35.969 138.315C36.7262 138.945 39.5448 139.417 40.8595 139.575C68.3726 115.157 93.5511 108.738 102.701 108.581Z" fill="#1A0705"/>
<path d="M71.7803 52.5722C71.5279 52.0688 72.4113 48.5866 72.8846 46.9085C109.611 61.8861 125.313 89.3347 128.573 101.186H123.683C112.198 73.371 84.2959 57.1872 71.7803 52.5722Z" fill="#1A0705"/>
<path d="M134.568 146.654L129.677 144.766C126.396 160.75 117.162 172.718 112.955 176.704C95.6646 192.184 73.6733 194.692 64.8388 194.01C31.7726 191.366 31.8146 162.177 35.969 147.913L31.0784 146.34C19.215 173.148 36.0216 190.233 45.9077 195.425C104.216 211.913 129.309 169.781 134.568 146.654Z" fill="#1A0705"/>
<path d="M118.161 180.951L121.316 176.704C159.179 210.938 188.626 194.744 198.618 182.367C209.85 163.74 201.51 147.441 195.936 141.619C180.034 123.621 159.02 114.926 150.502 112.828L153.973 108.581C186.787 118.65 203.088 140.361 207.137 149.958C212.186 170.096 203.562 185.095 198.618 190.076C166.814 217.263 131.729 195.32 118.161 180.951Z" fill="#1A0705"/>
</g>
<defs>
<clipPath id="clip0_122_2">
<rect width="240.847" height="203" fill="white"/>
</clipPath>
</defs>
</svg>
