<svg width="26" height="40" viewBox="0 0 26 40" fill="none" xmlns="http://www.w3.org/2000/svg">
<path d="M12.1333 0V12.1739H6.06667C2.72567 12.1739 0 9.43913 0 6.08696C0 2.73478 2.72567 0 6.06667 0H12.1333ZM12.1333 13.913V26.087H6.06667C2.72567 26.087 0 23.3522 0 20C0 16.6478 2.72567 13.913 6.06667 13.913H12.1333ZM12.1333 27.8261V33.913C12.1333 37.2652 9.40767 40 6.06667 40C2.72567 40 0 37.2652 0 33.913C0 30.5609 2.72567 27.8261 6.06667 27.8261H12.1333ZM26 6.08696C26 9.43913 23.2743 12.1739 19.9333 12.1739H13.8667V0H19.9333C23.2743 0 26 2.73478 26 6.08696ZM19.9333 13.913C18.3244 13.913 16.7813 14.5543 15.6436 15.6959C14.5058 16.8374 13.8667 18.3856 13.8667 20C13.8667 21.6144 14.5058 23.1626 15.6436 24.3041C16.7813 25.4457 18.3244 26.087 19.9333 26.087C21.5423 26.087 23.0854 25.4457 24.2231 24.3041C25.3608 23.1626 26 21.6144 26 20C26 18.3856 25.3608 16.8374 24.2231 15.6959C23.0854 14.5543 21.5423 13.913 19.9333 13.913Z" fill="#1A0705"/>
</svg>
