<svg width="31" height="48" viewBox="0 0 31 48" fill="none" xmlns="http://www.w3.org/2000/svg">
<g clip-path="url(#clip0_5805_897)">
<path d="M14.4666 0V14.6087H7.23334C3.24984 14.6087 0 11.327 0 7.30435C0 3.28174 3.24984 0 7.23334 0H14.4666ZM14.4666 16.6956V31.3044H7.23334C3.24984 31.3044 0 28.0226 0 24C0 19.9774 3.24984 16.6956 7.23334 16.6956H14.4666ZM14.4666 33.3913V40.6956C14.4666 44.7182 11.2168 48 7.23334 48C3.24984 48 0 44.7182 0 40.6956C0 36.6731 3.24984 33.3913 7.23334 33.3913H14.4666ZM31 7.30435C31 11.327 27.7501 14.6087 23.7666 14.6087H16.5334V0H23.7666C27.7501 0 31 3.28174 31 7.30435ZM23.7666 16.6956C21.8483 16.6956 20.0085 17.4652 18.652 18.8351C17.2954 20.2049 16.5334 22.0627 16.5334 24C16.5334 25.9373 17.2954 27.7951 18.652 29.1649C20.0085 30.5348 21.8483 31.3044 23.7666 31.3044C25.6851 31.3044 27.5249 30.5348 28.8814 29.1649C30.2379 27.7951 31 25.9373 31 24C31 22.0627 30.2379 20.2049 28.8814 18.8351C27.5249 17.4652 25.6851 16.6956 23.7666 16.6956Z" fill="#1A0705"/>
</g>
<defs>
<clipPath id="clip0_5805_897">
<rect width="31" height="48" fill="white"/>
</clipPath>
</defs>
</svg>
