<svg width="55" height="54" viewBox="0 0 55 54" fill="none" xmlns="http://www.w3.org/2000/svg">
<g clip-path="url(#clip0_152_7)">
<path fill-rule="evenodd" clip-rule="evenodd" d="M27.4181 0.0615234C12.2566 0.0615234 0 12.4085 0 27.6833C0 39.8933 7.85321 50.2288 18.7477 53.8869C20.1098 54.1619 20.6087 53.2925 20.6087 52.5613C20.6087 51.9209 20.5638 49.726 20.5638 47.439C12.9368 49.0856 11.3485 44.1463 11.3485 44.1463C10.1228 40.945 8.30668 40.1223 8.30668 40.1223C5.81036 38.4302 8.48852 38.4302 8.48852 38.4302C11.2576 38.6132 12.7106 41.2655 12.7106 41.2655C15.1615 45.4724 19.1108 44.2838 20.6996 43.5519C20.9264 41.7684 21.6532 40.5337 22.4248 39.8479C16.3417 39.2075 9.94153 36.8296 9.94153 26.2196C9.94153 23.2014 11.0303 20.732 12.7555 18.8115C12.4833 18.1257 11.5298 15.2898 13.0283 11.4942C13.0283 11.4942 15.3433 10.7624 20.5633 14.3295C22.7981 13.7249 25.1029 13.4173 27.4181 13.4147C29.7331 13.4147 32.0931 13.7352 34.2723 14.3295C39.4928 10.7624 41.8079 11.4942 41.8079 11.4942C43.3063 15.2898 42.3522 18.1257 42.08 18.8115C43.8507 20.732 44.8946 23.2014 44.8946 26.2196C44.8946 36.8296 38.4944 39.1615 32.3658 39.8479C33.3648 40.7166 34.2268 42.3627 34.2268 44.9696C34.2268 48.6737 34.1819 51.6465 34.1819 52.5607C34.1819 53.2925 34.6814 54.1619 36.043 53.8874C46.9374 50.2283 54.7907 39.8933 54.7907 27.6833C54.8356 12.4085 42.5341 0.0615234 27.4181 0.0615234Z" fill="#24292F"/>
</g>
<defs>
<clipPath id="clip0_152_7">
<rect width="55" height="54" fill="white"/>
</clipPath>
</defs>
</svg>
