<svg width="41" height="40" viewBox="0 0 41 40" fill="none" xmlns="http://www.w3.org/2000/svg">
<path d="M20.5 0C9.17888 0 0 9.09522 0 20.3132C0 29.8316 6.61467 37.796 15.5322 40C15.4365 39.7258 15.375 39.4075 15.375 39.0131V35.5413C14.543 35.5413 13.149 35.5413 12.7988 35.5413C11.3963 35.5413 10.1492 34.9437 9.54446 33.8333C8.87308 32.5992 8.75692 30.7118 7.093 29.5573C6.59929 29.1731 6.97512 28.7347 7.544 28.7939C8.59463 29.0884 9.46588 29.8028 10.2859 30.8625C11.1025 31.9238 11.4868 32.1642 13.0124 32.1642C13.7521 32.1642 14.8591 32.1219 15.9012 31.9594C16.4615 30.5493 17.4301 29.251 18.614 28.6382C11.7875 27.9424 8.52971 24.5772 8.52971 20.0085C8.52971 18.0415 9.37533 16.1388 10.812 14.5358C10.3405 12.9446 9.74775 9.69953 10.9931 8.46382C14.0647 8.46382 15.9217 10.4376 16.3675 10.9708C17.8982 10.4511 19.5792 10.1566 21.3456 10.1566C23.1155 10.1566 24.8033 10.4511 26.3374 10.9742C26.7781 10.4444 28.6368 8.46382 31.7152 8.46382C32.9657 9.70123 32.3661 12.9598 31.8895 14.5476C33.3176 16.1473 34.1581 18.0449 34.1581 20.0085C34.1581 24.5738 30.9055 27.9374 24.0892 28.6365C25.965 29.6064 27.3333 32.3318 27.3333 34.3851V39.0131C27.3333 39.1892 27.294 39.3161 27.2735 39.4668C35.2617 36.6923 41 29.1765 41 20.3132C41 9.09522 31.8211 0 20.5 0Z" fill="#E44031"/>
</svg>
