<svg width="40" height="40" viewBox="0 0 40 40" fill="none" xmlns="http://www.w3.org/2000/svg">
<path d="M21.333 0C30.1326 0 34.5329 -0.000271791 37.2666 2.7334C40.0003 5.46707 40 9.86744 40 18.667V21.333C40 30.1326 40.0003 34.5329 37.2666 37.2666C34.5329 40.0003 30.1326 40 21.333 40H18.667C9.86744 40 5.46707 40.0003 2.7334 37.2666C-0.000271791 34.5329 0 30.1326 0 21.333V18.667C0 9.86744 -0.000271791 5.46707 2.7334 2.7334C5.46707 -0.000271791 9.86744 0 18.667 0H21.333ZM19.666 9.33301C13.9596 9.33336 9.33336 13.9596 9.33301 19.666C9.33301 25.1946 13.675 29.7095 19.1348 29.9863L19.666 30C25.1946 30 29.7095 25.658 29.9863 20.1982L30 19.666C29.9996 13.9594 25.3727 9.33301 19.666 9.33301ZM19.666 12.666C23.5318 12.666 26.6657 15.8003 26.666 19.666C26.666 23.532 23.532 26.666 19.666 26.666C15.8003 26.6657 12.666 23.5318 12.666 19.666C12.6664 15.8005 15.8005 12.6664 19.666 12.666ZM32.667 4.66699C31.1943 4.66699 30.0002 5.8604 30 7.33301C30 8.80577 31.1942 10 32.667 10C34.1396 9.99982 35.333 8.80566 35.333 7.33301C35.3328 5.86051 34.1395 4.66717 32.667 4.66699Z" fill="#1A0705"/>
</svg>
