<svg width="55" height="55" viewBox="0 0 55 55" fill="none" xmlns="http://www.w3.org/2000/svg">
<path d="M16.1106 0.192328C13.1846 0.330378 11.1865 0.797328 9.43969 1.48373C7.63184 2.18828 6.09954 3.13373 4.57494 4.66383C3.05034 6.19393 2.11149 7.72733 1.41189 9.53793C0.734845 11.2886 0.276145 13.2884 0.146895 16.216C0.0176446 19.1437 -0.0109554 20.0847 0.00334459 27.5526C0.0176446 35.0205 0.0506446 35.9566 0.192545 38.8903C0.332245 41.8158 0.797545 43.8134 1.48394 45.5607C2.18959 47.3686 3.13394 48.9003 4.66459 50.4255C6.19524 51.9506 7.72754 52.8873 9.54254 53.588C11.2915 54.2639 13.2919 54.7248 16.219 54.853C19.1461 54.9811 20.0882 55.0108 27.5539 54.9965C35.0196 54.9822 35.9596 54.9492 38.8927 54.8101C41.8259 54.6709 43.813 54.2023 45.5609 53.5192C47.3688 52.8119 48.9016 51.8692 50.4257 50.338C51.9497 48.8068 52.888 47.2723 53.5871 45.4606C54.2647 43.7116 54.725 41.7113 54.8521 38.7864C54.9802 35.851 55.0105 34.9138 54.9962 27.447C54.9819 19.9802 54.9483 19.0441 54.8092 16.1115C54.67 13.1789 54.2042 11.1874 53.5183 9.43893C52.8116 7.63108 51.8683 6.10043 50.3382 4.57418C48.8081 3.04793 47.2725 2.11018 45.4614 1.41278C43.7113 0.735728 41.712 0.274278 38.7849 0.147778C35.8578 0.0212784 34.9157 -0.0111716 27.4472 0.00312843C19.9788 0.0174284 19.0438 0.0493284 16.1106 0.192328ZM16.4318 49.9057C13.7506 49.7891 12.2947 49.3436 11.3245 48.9707C10.0397 48.4757 9.12454 47.8773 8.15764 46.9198C7.19074 45.9622 6.59674 45.0437 6.09514 43.7617C5.71839 42.7915 5.26464 41.3373 5.13924 38.656C5.00284 35.7581 4.97424 34.888 4.95829 27.546C4.94234 20.2041 4.97039 19.3351 5.09744 16.436C5.21184 13.757 5.66009 12.2995 6.03244 11.3298C6.52744 10.0434 7.12364 9.12983 8.08339 8.16348C9.04314 7.19713 9.95889 6.60203 11.242 6.10043C12.2111 5.72203 13.6653 5.27213 16.3455 5.14453C19.2456 5.00703 20.1146 4.97953 27.4555 4.96358C34.7963 4.94763 35.6675 4.97513 38.5688 5.10273C41.2478 5.21933 42.7059 5.66318 43.6744 6.03773C44.9598 6.53273 45.8744 7.12728 46.8408 8.08868C47.8071 9.05008 48.4028 9.96253 48.9044 11.2484C49.2833 12.2148 49.7332 13.6684 49.8597 16.3502C49.9978 19.2504 50.0291 20.1199 50.0423 27.4602C50.0555 34.8005 50.0297 35.6723 49.9026 38.5702C49.7855 41.2515 49.3411 42.7079 48.9676 43.6792C48.4726 44.9634 47.8759 45.8792 46.9156 46.845C45.9553 47.8108 45.0406 48.4059 43.7569 48.9075C42.7889 49.2853 41.3331 49.7363 38.6551 49.8639C35.755 50.0003 34.886 50.0289 27.5424 50.0449C20.1988 50.0608 19.3325 50.0311 16.4324 49.9057M38.8504 12.8022C38.8515 13.4549 39.0461 14.0926 39.4097 14.6347C39.7732 15.1768 40.2894 15.599 40.8929 15.8477C41.4964 16.0964 42.16 16.1606 42.8 16.0321C43.4399 15.9036 44.0274 15.5882 44.4881 15.1258C44.9488 14.6635 45.262 14.0748 45.3882 13.4344C45.5143 12.794 45.4477 12.1305 45.1968 11.528C44.9458 10.9254 44.5218 10.4108 43.9784 10.0492C43.435 9.68767 42.7965 9.49537 42.1438 9.49668C41.2688 9.49843 40.4303 9.84763 39.8127 10.4675C39.1951 11.0874 38.8489 11.9272 38.8504 12.8022ZM13.3799 27.5273C13.3953 35.3263 19.7291 41.6343 27.5264 41.6194C35.3238 41.6046 41.6361 35.2713 41.6213 27.4723C41.6064 19.6733 35.271 13.3637 27.4725 13.3791C19.6741 13.3945 13.365 19.7294 13.3799 27.5273ZM18.3332 27.5174C18.3296 25.7044 18.8637 23.931 19.868 22.4216C20.8723 20.9121 22.3016 19.7343 23.9753 19.0372C25.6489 18.3401 27.4917 18.1549 29.2706 18.5051C31.0495 18.8552 32.6846 19.7251 33.9691 21.0045C35.2537 22.284 36.13 23.9156 36.4872 25.6931C36.8444 27.4706 36.6665 29.3141 35.976 30.9905C35.2855 32.6669 34.1134 34.1009 32.6079 35.1111C31.1025 36.1214 29.3312 36.6625 27.5182 36.6661C26.3143 36.6687 25.1218 36.434 24.0086 35.9756C22.8955 35.5172 21.8835 34.8439 21.0306 33.9944C20.1777 33.1448 19.5005 32.1356 19.0376 31.0242C18.5748 29.9129 18.3354 28.7213 18.3332 27.5174Z" fill="black"/>
</svg>
