<svg width="55" height="55" viewBox="0 0 55 55" fill="none" xmlns="http://www.w3.org/2000/svg">
<path d="M48.4524 0H6.54762C2.93333 0 0 2.93333 0 6.54762V48.4524C0 52.0667 2.93333 55 6.54762 55H48.4524C52.0667 55 55 52.0667 55 48.4524V6.54762C55 2.93333 52.0667 0 48.4524 0ZM17.0238 20.9524V45.8333H9.16667V20.9524H17.0238ZM9.16667 13.7107C9.16667 11.8774 10.7381 10.4762 13.0952 10.4762C15.4524 10.4762 16.9321 11.8774 17.0238 13.7107C17.0238 15.544 15.5571 17.0238 13.0952 17.0238C10.7381 17.0238 9.16667 15.544 9.16667 13.7107ZM45.8333 45.8333H37.9762C37.9762 45.8333 37.9762 33.7071 37.9762 32.7381C37.9762 30.119 36.6667 27.5 33.3929 27.4476H33.2881C30.119 27.4476 28.8095 30.1452 28.8095 32.7381C28.8095 33.9298 28.8095 45.8333 28.8095 45.8333H20.9524V20.9524H28.8095V24.3048C28.8095 24.3048 31.3369 20.9524 36.4179 20.9524C41.6167 20.9524 45.8333 24.5274 45.8333 31.769V45.8333Z" fill="black"/>
</svg>
