<svg width="280" height="236" viewBox="0 0 280 236" fill="none" xmlns="http://www.w3.org/2000/svg">
<path d="M74.4622 58.3749L75.1958 52.8879C59.7899 47.6203 38.087 54.3511 29.1613 58.3749C6.27242 69.0565 0.183404 101.479 0 116.355C1.34496 130.743 11.8112 161.642 42.9166 170.129C74.0219 178.615 104.051 172.445 115.178 168.299L114.261 162.264C99.5885 166.946 77.58 167.751 68.4098 167.568C45.8144 167.568 28.0609 155.862 22.0085 150.009C0.146766 129.231 6.41919 99.0403 12.2881 86.542C27.8408 55.9606 60.2178 55.0217 74.4622 58.3749Z" fill="#37352F"/>
<path d="M123.798 165.922C123.358 165.044 123.248 161.044 123.248 159.154C138.947 152.57 147.274 146.656 149.474 144.522C150.355 148.18 150.33 150.802 150.208 151.655C143.459 157.654 129.789 163.666 123.798 165.922Z" fill="#37352F"/>
<path d="M158.461 145.071L157.361 137.572C186.852 113.575 194.959 78.0674 195.325 63.3132C197.82 61.7037 201.133 61.1794 202.478 61.1184C203.359 98.2842 173.5 132.572 158.461 145.071Z" fill="#37352F"/>
<path d="M201.378 51.0588C197.856 51.4977 195.509 52.7049 194.775 53.2536C186.559 12.7223 150.391 5.88179 133.335 7.52795C95.9204 13.5272 83.3878 45.7546 81.7983 61.1184C78.1302 77.5064 94.3309 108.429 102.89 121.842C101.129 122.281 98.4881 123.001 97.3876 123.305C76.6996 101.357 75.4403 65.9958 77.3966 51.0588C81.6516 15.7951 118.418 2.34563 136.269 0.0288825C179.993 -1.1417 197.893 33.5611 201.378 51.0588Z" fill="#37352F"/>
<path d="M109.309 129.158C105.347 129.597 103.379 130.682 102.89 131.17C109.492 141.12 123.37 151.046 129.483 154.765C132.124 154.326 134.13 152.509 134.802 151.655C119.983 141.998 111.632 132.633 109.309 129.158Z" fill="#37352F"/>
<path d="M144.889 156.96C142.688 159.154 140.182 160.435 139.204 160.8C174.417 181.578 215.011 177.262 230.906 172.506C230.026 169.287 228.094 167.629 227.238 167.202C185.568 176.42 154.977 164.215 144.889 156.96Z" fill="#37352F"/>
<path d="M240.81 169.763C240.37 168.153 238.059 165.19 236.958 163.91C268.357 151.18 274.617 122.147 273.822 109.222C268.1 58.5944 224.487 54.3511 203.395 58.5578C173.904 65.7276 150.514 88.7368 142.505 99.3451C141.918 98.1746 139.448 95.0774 138.287 93.6752C154.426 69.6783 190.496 55.2655 206.513 51.0588C241.14 44.1816 265.814 68.9223 273.822 82.1523C293.924 134.097 260.189 162.203 240.81 169.763Z" fill="#37352F"/>
<path d="M137.37 108.124C136.343 105.783 133.885 102.881 132.785 101.723C125.448 110.941 119.946 128.244 118.112 135.743C118.993 138.816 122.025 140.315 123.431 140.681C129.447 118.586 135.23 109.771 137.37 108.124Z" fill="#37352F"/>
<path d="M129.483 125.683L132.234 118.916C152.629 118.916 165.308 121.842 169.099 123.305L165.064 128.244C150.978 124.439 135.475 124.952 129.483 125.683Z" fill="#37352F"/>
<path d="M153.326 127.512C150.832 126.927 148.129 126.781 147.09 126.781C152.079 142.876 152.103 155.069 151.492 159.154C153.986 160.91 156.444 160.983 157.361 160.8C158.388 145.437 155.099 132.207 153.326 127.512Z" fill="#37352F"/>
<path d="M122.514 151.655L116.645 147.266C113.27 174.628 125.021 195.979 131.317 203.234L135.352 198.661C122.441 187.248 121.414 162.568 122.514 151.655Z" fill="#37352F"/>
<path d="M119.396 126.232L121.964 118.916C77.6533 126.817 50.0693 150.131 41.8162 160.8C42.6965 161.532 45.9733 162.081 47.5017 162.264C79.4874 133.877 108.759 126.415 119.396 126.232Z" fill="#37352F"/>
<path d="M83.4489 61.1184C83.1555 60.5331 84.1825 56.4849 84.7327 54.534C127.429 71.9463 145.684 103.857 149.474 117.635H143.789C130.437 85.2982 97.999 66.4836 83.4489 61.1184Z" fill="#37352F"/>
<path d="M156.444 170.494L150.758 168.299C146.943 186.882 136.208 200.795 131.317 205.429C111.216 223.426 85.6498 226.341 75.3791 225.548C36.9376 222.475 36.9865 188.541 41.8162 171.958L36.1306 170.129C22.3386 201.295 41.8773 221.158 53.3706 227.194C121.157 246.362 150.33 197.381 156.444 170.494Z" fill="#37352F"/>
<path d="M137.37 210.367L141.038 205.429C185.055 245.228 219.29 226.402 230.906 212.013C243.964 190.358 234.268 171.409 227.788 164.641C209.301 143.717 184.871 133.609 174.968 131.17L179.003 126.232C217.151 137.938 236.102 163.178 240.81 174.335C246.679 197.747 236.653 215.184 230.906 220.975C193.932 252.581 153.143 227.072 137.37 210.367Z" fill="#37352F"/>
</svg>
