<svg width="430" height="50" viewBox="0 0 430 50" fill="none" xmlns="http://www.w3.org/2000/svg">
<path d="M296.68 12.1681L296.835 11.0243C293.585 9.92632 289.007 11.3293 287.125 12.1681C282.297 14.3946 281.012 21.153 280.974 24.2539C281.257 27.2531 283.465 33.6938 290.026 35.4628C296.587 37.2319 302.921 35.9458 305.268 35.0816L305.075 33.8234C301.98 34.7995 297.338 34.9672 295.403 34.9291C290.637 34.9291 286.892 32.4891 285.616 31.269C281.005 26.938 282.328 20.6447 283.566 18.0394C286.846 11.6648 293.675 11.4691 296.68 12.1681Z" fill="#37352F"/>
<path d="M307.086 34.5859C306.993 34.4029 306.97 33.5693 306.97 33.1753C310.282 31.8028 312.038 30.57 312.502 30.1252C312.688 30.8878 312.683 31.4342 312.657 31.6121C311.233 32.8627 308.35 34.1157 307.086 34.5859Z" fill="#37352F"/>
<path d="M314.398 30.2396L314.166 28.6765C320.386 23.6744 322.096 16.2729 322.173 13.1975C322.7 12.862 323.399 12.7527 323.682 12.74C323.868 20.4871 317.57 27.6344 314.398 30.2396Z" fill="#37352F"/>
<path d="M323.45 10.6431C322.707 10.7346 322.212 10.9862 322.057 11.1006C320.324 2.65193 312.696 1.22604 309.098 1.56918C301.206 2.81971 298.563 9.53743 298.227 12.74C297.454 16.156 300.871 22.6018 302.676 25.3977C302.305 25.4892 301.748 25.6391 301.516 25.7027C297.152 21.1276 296.886 13.7567 297.299 10.6431C298.196 3.29244 305.951 0.488941 309.717 0.00602049C318.939 -0.237983 322.715 6.99571 323.45 10.6431Z" fill="#37352F"/>
<path d="M304.03 26.9227C303.194 27.0142 302.779 27.2404 302.676 27.3421C304.069 29.4161 306.996 31.4851 308.285 32.2603C308.843 32.1688 309.265 31.7901 309.407 31.6121C306.282 29.5991 304.52 27.6471 304.03 26.9227Z" fill="#37352F"/>
<path d="M311.535 32.7178C311.071 33.1753 310.542 33.4422 310.336 33.5184C317.763 37.8495 326.326 36.9497 329.678 35.9585C329.493 35.2875 329.085 34.9418 328.905 34.8528C320.115 36.7744 313.663 34.2301 311.535 32.7178Z" fill="#37352F"/>
<path d="M331.767 35.3866C331.675 35.0511 331.187 34.4335 330.955 34.1666C337.578 31.513 338.898 25.4612 338.731 22.767C337.524 12.2139 328.324 11.3293 323.876 12.2062C317.655 13.7007 312.721 18.497 311.032 20.7082C310.908 20.4642 310.387 19.8186 310.142 19.5263C313.547 14.5243 321.155 11.52 324.533 10.6431C331.837 9.20953 337.042 14.3667 338.731 17.1244C342.971 27.9521 335.855 33.8107 331.767 35.3866Z" fill="#37352F"/>
<path d="M309.949 22.5383C309.732 22.0503 309.214 21.4453 308.982 21.2039C307.434 23.1254 306.274 26.7321 305.887 28.2952C306.073 28.9357 306.712 29.2484 307.009 29.3246C308.278 24.719 309.498 22.8814 309.949 22.5383Z" fill="#37352F"/>
<path d="M308.285 26.1983L308.866 24.7877C313.168 24.7877 315.842 25.3977 316.641 25.7027L315.79 26.7321C312.819 25.9391 309.549 26.0458 308.285 26.1983Z" fill="#37352F"/>
<path d="M313.315 26.5796C312.788 26.4576 312.218 26.4271 311.999 26.4271C313.051 29.7821 313.057 32.3238 312.928 33.1753C313.454 33.5413 313.972 33.5566 314.166 33.5184C314.382 30.3159 313.689 27.5581 313.315 26.5796Z" fill="#37352F"/>
<path d="M306.815 31.6121L305.577 30.6971C304.866 36.4007 307.344 40.8513 308.672 42.3636L309.523 41.4104C306.8 39.0314 306.583 33.887 306.815 31.6121Z" fill="#37352F"/>
<path d="M306.158 26.3127L306.699 24.7877C297.353 26.4347 291.535 31.2944 289.794 33.5184C289.98 33.6709 290.671 33.7853 290.993 33.8234C297.74 27.9064 303.914 26.3508 306.158 26.3127Z" fill="#37352F"/>
<path d="M298.575 12.74C298.514 12.618 298.73 11.7741 298.846 11.3675C307.852 14.997 311.703 21.6487 312.502 24.5208H311.303C308.487 17.7802 301.644 13.8583 298.575 12.74Z" fill="#37352F"/>
<path d="M313.972 35.5391L312.773 35.0816C311.968 38.9552 309.704 41.8552 308.672 42.8211C304.432 46.5726 299.04 47.1801 296.873 47.0149C288.765 46.3744 288.775 39.3008 289.794 35.8441L288.595 35.4628C285.686 41.9595 289.807 46.0999 292.231 47.358C306.529 51.3536 312.683 41.1436 313.972 35.5391Z" fill="#37352F"/>
<path d="M309.949 43.8505L310.723 42.8211C320.007 51.1172 327.228 47.1928 329.678 44.1936C332.433 39.6795 330.388 35.7297 329.021 34.3191C325.121 29.9575 319.968 27.8504 317.879 27.3421L318.731 26.3127C326.777 28.7527 330.775 34.0141 331.767 36.3397C333.005 41.2198 330.891 44.8545 329.678 46.0618C321.879 52.6499 313.276 47.3326 309.949 43.8505Z" fill="#37352F"/>
<path d="M7.28017 33.5889L2.29636 22.5266L0.942384 22.1232L1 21.2302H5.75334L5.81095 22.1232L4.02485 22.5266L8.31726 32.1197L7.59706 32.1485L11.515 22.5266L9.72886 22.1232L9.78647 21.2302H14.3093L14.367 22.1232L13.013 22.5266L7.97156 33.5889H7.28017ZM23.4968 33.7041C22.4597 33.7041 21.5091 33.4736 20.6448 33.0127C19.7806 32.5326 19.0892 31.8412 18.5706 30.9385C18.0521 30.0167 17.7928 28.9027 17.7928 27.5968C17.7928 26.214 18.0521 25.0329 18.5706 24.0534C19.1084 23.0547 19.8094 22.2961 20.6736 21.7775C21.5379 21.2398 22.4693 20.9805 23.468 20.9997C24.8508 21.0189 25.9455 21.4895 26.7521 22.4113C27.578 23.3332 27.9909 24.7352 27.9909 26.6173V27.0494H18.9163V25.8971H26.5505L26.2912 26.1276V25.6954C26.2912 24.5047 26.0223 23.5925 25.4846 22.9587C24.9468 22.3057 24.1978 21.9792 23.2376 21.9792C22.6614 21.9792 22.0948 22.152 21.5379 22.4977C21.0001 22.8434 20.5488 23.362 20.1839 24.0534C19.8382 24.7448 19.6653 25.6186 19.6653 26.6749V26.9054C19.6653 28.5955 20.0687 29.9014 20.8753 30.8233C21.6819 31.7259 22.6998 32.1773 23.9289 32.1773C24.6395 32.1773 25.2637 32.0428 25.8015 31.774C26.3392 31.4859 26.8482 31.0345 27.3283 30.42L27.9909 30.9961C27.4531 31.918 26.8002 32.5998 26.0319 33.0415C25.2829 33.4832 24.4379 33.7041 23.4968 33.7041ZM32.6555 33.4736L32.5979 32.5806L34.384 32.1773C34.4032 32.062 34.4128 31.8892 34.4128 31.6587C34.432 31.4091 34.4416 31.073 34.4416 30.6504C34.4608 30.2087 34.4704 29.6614 34.4704 29.0084V26.7037C34.4704 26.0315 34.4416 25.3497 34.384 24.6584C34.3456 23.9478 34.3072 23.458 34.2688 23.1891L32.425 22.7858V21.9792L35.7092 21.0573L35.9684 21.403L35.8244 23.8805L35.9108 23.9093C36.5254 22.7762 37.1304 22.0176 37.7257 21.6335C38.3211 21.2302 38.8588 21.0285 39.339 21.0285C39.7615 21.0285 40.0976 21.1246 40.3473 21.3166C40.6161 21.5087 40.7506 21.7775 40.7506 22.1232C40.7506 22.4881 40.6161 22.7666 40.3473 22.9587C40.0784 23.1507 39.7231 23.2468 39.2814 23.2468C38.9741 23.2468 38.6764 23.1795 38.3883 23.0451C38.1002 22.8915 37.8506 22.709 37.6393 22.4977L37.985 22.7282C37.6201 22.9779 37.2552 23.3332 36.8903 23.7941C36.5446 24.255 36.2181 24.8312 35.9108 25.5226L35.9396 28.4034C35.9588 28.7875 35.978 29.2196 35.9972 29.6998C36.0164 30.1799 36.0357 30.6504 36.0549 31.1114C36.0741 31.5531 36.0933 31.9084 36.1125 32.1773L38.6188 32.523L38.5612 33.4736H32.6555ZM49.9669 33.5889L45.0119 22.5266L43.6579 22.1232L43.7155 21.2302H48.4688L48.5265 22.1232L46.7404 22.5266L51.004 32.1197L49.9669 33.5889ZM57.0249 21.2302L57.0825 22.1232L55.7285 22.5266L50.9175 32.9839L48.5841 37.766C48.2 38.5727 47.7871 39.1488 47.3453 39.4945C46.9228 39.8594 46.4043 40.0419 45.7897 40.0419C45.4056 40.0419 45.0791 39.9459 44.8102 39.7538C44.5413 39.581 44.4069 39.3313 44.4069 39.0048C44.4069 38.7935 44.4933 38.5823 44.6662 38.371C44.839 38.1598 45.1271 37.9869 45.5304 37.8525L47.8639 37.1323L46.8268 38.6015L49.8804 32.5806L50.1685 32.1485L54.2305 22.5266L52.4444 22.1232L52.502 21.2302H57.0249ZM68.2842 33.4736L68.2266 32.5806L70.0127 32.1773C70.0511 31.9468 70.0703 31.6395 70.0703 31.2554C70.0895 30.8521 70.0991 30.2855 70.0991 29.5557C70.1183 28.8259 70.1279 27.8272 70.1279 26.5597V22.9875C70.1279 22.3345 70.1183 21.6143 70.0991 20.8269C70.0991 20.0202 70.0895 19.2424 70.0703 18.4934C70.0703 17.7444 70.0607 17.1106 70.0415 16.5921C70.0415 16.0543 70.0415 15.7374 70.0415 15.6414L67.9097 15.3533L67.8521 14.6043L71.2514 13.5384L71.6836 13.8841C71.6644 14.4795 71.6452 15.0845 71.626 15.699C71.626 16.3136 71.6164 16.9762 71.5971 17.6868C71.5971 18.3782 71.5875 19.156 71.5683 20.0202C71.5683 20.8653 71.5683 21.8448 71.5683 22.9587L71.6548 22.9875C72.3654 22.2577 73.0279 21.7487 73.6425 21.4607C74.2763 21.1534 74.9581 20.9997 75.6879 20.9997C76.3409 20.9997 76.9747 21.1726 77.5892 21.5183C78.2038 21.8448 78.7127 22.3729 79.1161 23.1027C79.5194 23.8133 79.721 24.7544 79.721 25.9259V29.1236C79.721 29.8342 79.7402 30.468 79.7786 31.0249C79.8171 31.5627 79.8555 31.9468 79.8939 32.1773L81.68 32.5806L81.6512 33.4736H76.5521L76.4945 32.5806L78.1654 32.1773C78.1846 32.0236 78.1942 31.8508 78.1942 31.6587C78.2134 31.4667 78.223 31.1978 78.223 30.8521C78.2422 30.5064 78.2518 30.0263 78.2518 29.4117V25.9835C78.2518 25.1001 78.0982 24.3895 77.7909 23.8517C77.4836 23.314 77.0899 22.9203 76.6098 22.6706C76.1488 22.4209 75.6495 22.2961 75.1117 22.2961C74.4011 22.2961 73.7482 22.4785 73.1528 22.8434C72.5574 23.1891 72.0389 23.6789 71.5971 24.3127V28.7203C71.5971 29.6614 71.6067 30.4392 71.626 31.0538C71.6644 31.6491 71.6932 32.0236 71.7124 32.1773L73.4985 32.5806L73.4409 33.4736H68.2842ZM85.8837 33.4736L85.826 32.5518L87.7562 32.1773C87.7754 32.1004 87.785 31.9852 87.785 31.8316C87.8042 31.6779 87.8138 31.3898 87.8138 30.9673C87.833 30.5256 87.8426 29.8726 87.8426 29.0084V27.2799C87.8426 26.3388 87.8234 25.4938 87.785 24.7448C87.7466 23.9766 87.7082 23.458 87.6698 23.1891L85.7396 22.7858V21.9792L89.2254 21.0573L89.4847 21.3742C89.4463 21.9696 89.4079 22.5458 89.3694 23.1027C89.3502 23.6597 89.3406 24.3223 89.3406 25.0905V28.7203C89.3406 29.6998 89.3502 30.4872 89.3694 31.0826C89.4079 31.6587 89.4367 32.0236 89.4559 32.1773L91.386 32.5518L91.3284 33.4736H85.8837ZM88.5916 17.3699C88.2267 17.3699 87.8906 17.2451 87.5833 16.9954C87.2761 16.7265 87.1224 16.3808 87.1224 15.9583C87.1224 15.555 87.2761 15.2189 87.5833 14.95C87.8906 14.6811 88.2267 14.5467 88.5916 14.5467C88.9565 14.5467 89.283 14.6811 89.5711 14.95C89.8592 15.2189 90.0032 15.555 90.0032 15.9583C90.0032 16.3808 89.8592 16.7265 89.5711 16.9954C89.283 17.2451 88.9565 17.3699 88.5916 17.3699ZM101.236 40.0419C99.6036 40.0419 98.2977 39.7442 97.3182 39.1488C96.3387 38.5727 95.849 37.8141 95.849 36.873C95.849 36.2008 96.0698 35.5766 96.5115 35.0005C96.9533 34.4435 97.7407 33.8193 98.8738 33.1279L99.8821 33.416C99.1715 33.8193 98.6241 34.2707 98.24 34.77C97.8751 35.2885 97.6927 35.8551 97.6927 36.4697C97.6927 37.2955 98.0096 37.9293 98.6433 38.371C99.2963 38.8319 100.18 39.0624 101.294 39.0624C102.619 39.0624 103.685 38.7743 104.491 38.1982C105.317 37.622 105.73 36.8634 105.73 35.9223C105.73 35.1925 105.471 34.6452 104.952 34.2803C104.434 33.9346 103.579 33.7233 102.388 33.6465L99.5652 33.416L99.0467 33.3296C98.4705 33.3296 97.9424 33.1375 97.4622 32.7534C97.0013 32.3693 96.7708 31.9276 96.7708 31.4283C96.7708 30.9481 96.9917 30.468 97.4334 29.9879C97.8751 29.5077 98.4993 29.0564 99.3059 28.6339L99.6516 29.2676C99.2099 29.5749 98.893 29.8438 98.701 30.0743C98.5089 30.2855 98.4129 30.4872 98.4129 30.6792C98.4129 30.9865 98.5569 31.2458 98.845 31.4571C99.1331 31.6683 99.5364 31.8028 100.055 31.8604L103.454 32.2061C104.703 32.3405 105.673 32.6574 106.364 33.1567C107.055 33.6561 107.401 34.4147 107.401 35.4326C107.401 36.2968 107.123 37.0746 106.566 37.766C106.028 38.4574 105.288 39.0048 104.347 39.4081C103.425 39.8306 102.388 40.0419 101.236 40.0419ZM101.524 29.815C100.583 29.815 99.7285 29.6422 98.9602 29.2965C98.2112 28.9316 97.6159 28.4418 97.1741 27.8272C96.7516 27.1935 96.5404 26.4925 96.5404 25.7243C96.5404 24.8408 96.7516 24.0438 97.1741 23.3332C97.6159 22.6226 98.2016 22.0656 98.9314 21.6623C99.6804 21.2398 100.516 21.0285 101.438 21.0285C102.379 21.0285 103.205 21.211 103.915 21.5759C104.645 21.9408 105.221 22.4497 105.644 23.1027C106.066 23.7557 106.277 24.5047 106.277 25.3497C106.277 26.1756 106.057 26.9246 105.615 27.5968C105.192 28.269 104.616 28.8067 103.886 29.21C103.176 29.6133 102.388 29.815 101.524 29.815ZM101.639 28.8931C102.523 28.8931 103.214 28.5955 103.714 28.0001C104.232 27.4047 104.491 26.6077 104.491 25.609C104.491 24.4759 104.203 23.5732 103.627 22.9011C103.07 22.2289 102.331 21.8928 101.409 21.8928C100.525 21.8928 99.7957 22.2097 99.2195 22.8434C98.6626 23.4772 98.3841 24.3031 98.3841 25.3209C98.3841 26.3772 98.6818 27.2415 99.2771 27.9137C99.8725 28.5667 100.66 28.8931 101.639 28.8931ZM108.092 22.8434L104.866 22.6706L103.714 21.6335L108.092 21.2302V22.8434ZM112.066 33.4736L112.008 32.5806L113.794 32.1773C113.833 31.9468 113.852 31.6395 113.852 31.2554C113.871 30.8521 113.881 30.2855 113.881 29.5557C113.9 28.8259 113.909 27.8272 113.909 26.5597V22.9875C113.909 22.3345 113.9 21.6143 113.881 20.8269C113.881 20.0202 113.871 19.2424 113.852 18.4934C113.852 17.7444 113.842 17.1106 113.823 16.5921C113.823 16.0543 113.823 15.7374 113.823 15.6414L111.691 15.3533L111.634 14.6043L115.033 13.5384L115.465 13.8841C115.446 14.4795 115.427 15.0845 115.407 15.699C115.407 16.3136 115.398 16.9762 115.379 17.6868C115.379 18.3782 115.369 19.156 115.35 20.0202C115.35 20.8653 115.35 21.8448 115.35 22.9587L115.436 22.9875C116.147 22.2577 116.809 21.7487 117.424 21.4607C118.058 21.1534 118.74 20.9997 119.469 20.9997C120.122 20.9997 120.756 21.1726 121.371 21.5183C121.985 21.8448 122.494 22.3729 122.897 23.1027C123.301 23.8133 123.502 24.7544 123.502 25.9259V29.1236C123.502 29.8342 123.522 30.468 123.56 31.0249C123.598 31.5627 123.637 31.9468 123.675 32.1773L125.461 32.5806L125.433 33.4736H120.334L120.276 32.5806L121.947 32.1773C121.966 32.0236 121.976 31.8508 121.976 31.6587C121.995 31.4667 122.004 31.1978 122.004 30.8521C122.024 30.5064 122.033 30.0263 122.033 29.4117V25.9835C122.033 25.1001 121.88 24.3895 121.572 23.8517C121.265 23.314 120.871 22.9203 120.391 22.6706C119.93 22.4209 119.431 22.2961 118.893 22.2961C118.183 22.2961 117.53 22.4785 116.934 22.8434C116.339 23.1891 115.82 23.6789 115.379 24.3127V28.7203C115.379 29.6614 115.388 30.4392 115.407 31.0538C115.446 31.6491 115.475 32.0236 115.494 32.1773L117.28 32.5806L117.222 33.4736H112.066ZM143.318 33.4736H137.7L137.643 32.5806L139.429 32.1773C139.429 32.0236 139.429 31.8508 139.429 31.6587C139.448 31.4667 139.458 31.2266 139.458 30.9385C139.458 30.6504 139.458 30.3143 139.458 29.9302C139.458 29.5269 139.458 29.0468 139.458 28.4898L139.429 22.5266V18.9543C139.429 17.7444 139.592 16.7265 139.918 15.9007C140.264 15.0749 140.754 14.4507 141.388 14.0282C142.021 13.5864 142.761 13.3656 143.606 13.3656C144.278 13.3656 144.854 13.5288 145.334 13.8553C145.815 14.1626 146.055 14.5371 146.055 14.9788C146.055 15.1901 145.987 15.3629 145.853 15.4974C145.718 15.6318 145.546 15.699 145.334 15.699C144.873 15.699 144.461 15.507 144.096 15.1229L142.943 13.9705L143.347 14.1434C142.578 14.1434 141.973 14.5179 141.532 15.2669C141.109 16.0159 140.898 17.0434 140.898 18.3494V21.2878L140.927 22.5266L140.956 28.2017C140.956 28.97 140.956 29.7382 140.956 30.5064C140.975 31.2554 140.994 31.8124 141.013 32.1773L143.375 32.4942L143.318 33.4736ZM137.355 22.5266V21.7775L139.429 21.2878H141.791H144.182V22.5266H137.355ZM148.357 33.4736L148.299 32.5806L150.085 32.1773C150.105 32.062 150.114 31.8892 150.114 31.6587C150.133 31.4091 150.143 31.073 150.143 30.6504C150.162 30.2087 150.172 29.6614 150.172 29.0084V26.7037C150.172 26.0315 150.143 25.3497 150.085 24.6584C150.047 23.9478 150.009 23.458 149.97 23.1891L148.126 22.7858V21.9792L151.411 21.0573L151.67 21.403L151.526 23.8805L151.612 23.9093C152.227 22.7762 152.832 22.0176 153.427 21.6335C154.023 21.2302 154.56 21.0285 155.04 21.0285C155.463 21.0285 155.799 21.1246 156.049 21.3166C156.318 21.5087 156.452 21.7775 156.452 22.1232C156.452 22.4881 156.318 22.7666 156.049 22.9587C155.78 23.1507 155.425 23.2468 154.983 23.2468C154.676 23.2468 154.378 23.1795 154.09 23.0451C153.802 22.8915 153.552 22.709 153.341 22.4977L153.686 22.7282C153.322 22.9779 152.957 23.3332 152.592 23.7941C152.246 24.255 151.92 24.8312 151.612 25.5226L151.641 28.4034C151.66 28.7875 151.679 29.2196 151.699 29.6998C151.718 30.1799 151.737 30.6504 151.756 31.1114C151.775 31.5531 151.795 31.9084 151.814 32.1773L154.32 32.523L154.263 33.4736H148.357ZM165.841 33.7041C164.804 33.7041 163.853 33.4736 162.989 33.0127C162.125 32.5326 161.434 31.8412 160.915 30.9385C160.396 30.0167 160.137 28.9027 160.137 27.5968C160.137 26.214 160.396 25.0329 160.915 24.0534C161.453 23.0547 162.154 22.2961 163.018 21.7775C163.882 21.2398 164.814 20.9805 165.812 20.9997C167.195 21.0189 168.29 21.4895 169.096 22.4113C169.922 23.3332 170.335 24.7352 170.335 26.6173V27.0494H161.261V25.8971H168.895L168.636 26.1276V25.6954C168.636 24.5047 168.367 23.5925 167.829 22.9587C167.291 22.3057 166.542 21.9792 165.582 21.9792C165.006 21.9792 164.439 22.152 163.882 22.4977C163.344 22.8434 162.893 23.362 162.528 24.0534C162.183 24.7448 162.01 25.6186 162.01 26.6749V26.9054C162.01 28.5955 162.413 29.9014 163.22 30.8233C164.026 31.7259 165.044 32.1773 166.273 32.1773C166.984 32.1773 167.608 32.0428 168.146 31.774C168.684 31.4859 169.192 31.0345 169.673 30.42L170.335 30.9961C169.797 31.918 169.144 32.5998 168.376 33.0415C167.627 33.4832 166.782 33.7041 165.841 33.7041ZM182.634 39.8114L182.576 38.9184L184.651 38.5151C184.67 38.227 184.679 37.9581 184.679 37.7084C184.679 37.478 184.679 37.1707 184.679 36.7866C184.699 36.4025 184.708 35.8647 184.708 35.1733L184.679 31.6011L184.593 31.5723C184.055 32.2829 183.46 32.811 182.807 33.1567C182.173 33.5024 181.501 33.6753 180.79 33.6753C179.619 33.6753 178.61 33.4256 177.765 32.9263C176.92 32.4077 176.267 31.7067 175.806 30.8233C175.365 29.9206 175.144 28.9027 175.144 27.7696C175.144 26.2716 175.461 25.0233 176.095 24.0246C176.728 23.0067 177.525 22.2481 178.486 21.7487C179.446 21.2302 180.416 20.9709 181.395 20.9709C181.991 20.9709 182.576 21.0477 183.153 21.2014C183.748 21.3358 184.286 21.5375 184.766 21.8063L185.457 21.0861H186.264C186.225 21.7967 186.197 22.4881 186.177 23.1603C186.158 23.8133 186.149 24.5239 186.149 25.2921C186.168 26.0411 186.177 26.9342 186.177 27.9713L186.264 34.2803C186.283 35.5478 186.302 36.4985 186.321 37.1323C186.341 37.7852 186.36 38.2462 186.379 38.5151L188.165 38.9184L188.108 39.8114H182.634ZM181.194 32.1485C181.904 32.1485 182.5 32.0236 182.98 31.774C183.479 31.5051 184.036 31.0153 184.651 30.3047L184.679 23.7941C184.276 23.1795 183.748 22.7378 183.095 22.4689C182.461 22.1809 181.837 22.0368 181.222 22.0368C180.512 22.0368 179.83 22.2289 179.177 22.613C178.524 22.9779 177.986 23.5348 177.564 24.2838C177.16 25.0329 176.959 25.9931 176.959 27.1647C176.959 28.7395 177.343 29.9686 178.111 30.8521C178.879 31.7163 179.907 32.1485 181.194 32.1485ZM203.431 31.7451L205.246 32.2349V33.0415L202.048 33.7617L201.789 33.416L201.818 31.6875L201.731 31.6587C201.155 32.4077 200.589 32.9359 200.032 33.2432C199.475 33.5312 198.86 33.6753 198.188 33.6753C196.959 33.6753 195.903 33.3008 195.019 32.5518C194.155 31.7836 193.723 30.6408 193.723 29.1236V26.5885C193.723 25.9739 193.713 25.3882 193.694 24.8312C193.675 24.255 193.646 23.7077 193.608 23.1891L191.649 22.7858V21.9792L194.933 21.0573L195.278 21.4607C195.259 22.0752 195.24 22.6898 195.221 23.3044C195.202 23.8997 195.192 24.5431 195.192 25.2345V28.7203C195.192 30.0263 195.49 30.9481 196.085 31.4859C196.7 32.0044 197.477 32.2637 198.418 32.2637C198.995 32.2637 199.58 32.1197 200.176 31.8316C200.79 31.5243 201.328 31.0057 201.789 30.2759V26.7325C201.789 26.31 201.779 25.8779 201.76 25.4362C201.76 24.9944 201.751 24.5719 201.731 24.1686C201.712 23.7653 201.683 23.4388 201.645 23.1891L199.542 22.7858V21.9792L202.999 21.0573L203.287 21.403C203.268 22.0176 203.249 22.5362 203.229 22.9587C203.229 23.362 203.229 23.7461 203.229 24.111C203.229 24.4759 203.229 24.8984 203.229 25.3786V27.3087C203.229 28.6531 203.258 29.6614 203.316 30.3335C203.373 31.0057 203.412 31.4763 203.431 31.7451ZM215.499 33.7041C214.462 33.7041 213.512 33.4736 212.647 33.0127C211.783 32.5326 211.092 31.8412 210.573 30.9385C210.055 30.0167 209.795 28.9027 209.795 27.5968C209.795 26.214 210.055 25.0329 210.573 24.0534C211.111 23.0547 211.812 22.2961 212.676 21.7775C213.54 21.2398 214.472 20.9805 215.471 20.9997C216.853 21.0189 217.948 21.4895 218.755 22.4113C219.581 23.3332 219.993 24.7352 219.993 26.6173V27.0494H210.919V25.8971H218.553L218.294 26.1276V25.6954C218.294 24.5047 218.025 23.5925 217.487 22.9587C216.949 22.3057 216.2 21.9792 215.24 21.9792C214.664 21.9792 214.097 22.152 213.54 22.4977C213.003 22.8434 212.551 23.362 212.186 24.0534C211.841 24.7448 211.668 25.6186 211.668 26.6749V26.9054C211.668 28.5955 212.071 29.9014 212.878 30.8233C213.684 31.7259 214.702 32.1773 215.932 32.1773C216.642 32.1773 217.266 32.0428 217.804 31.774C218.342 31.4859 218.851 31.0345 219.331 30.42L219.993 30.9961C219.456 31.918 218.803 32.5998 218.035 33.0415C217.286 33.4832 216.44 33.7041 215.499 33.7041ZM224.6 33.4736L224.543 32.5806L226.329 32.1773C226.348 32.0044 226.358 31.8124 226.358 31.6011C226.377 31.3706 226.387 31.0538 226.387 30.6504C226.406 30.2471 226.415 29.6998 226.415 29.0084L226.444 26.7325C226.444 26.0796 226.415 25.3978 226.358 24.6872C226.319 23.9574 226.281 23.458 226.243 23.1891L224.399 22.7858V21.9792L227.654 21.0573L228 21.4607L227.856 22.9299L227.942 22.9587C228.672 22.2289 229.344 21.7199 229.959 21.4318C230.593 21.1438 231.274 20.9997 232.004 20.9997C232.657 20.9997 233.291 21.163 233.905 21.4895C234.52 21.816 235.029 22.3345 235.432 23.0451C235.836 23.7557 236.037 24.6776 236.037 25.8107V29.1236C236.037 29.8342 236.056 30.468 236.095 31.0249C236.133 31.5819 236.172 31.966 236.21 32.1773L237.996 32.5806L237.939 33.4736H232.868L232.811 32.5806L234.482 32.1773C234.501 32.0236 234.51 31.8508 234.51 31.6587C234.53 31.4667 234.539 31.1978 234.539 30.8521C234.558 30.5064 234.568 30.0263 234.568 29.4117V25.9547C234.568 25.0137 234.395 24.2838 234.05 23.7653C233.723 23.2275 233.31 22.853 232.811 22.6418C232.331 22.4113 231.87 22.2961 231.428 22.2961C230.717 22.2961 230.064 22.4785 229.469 22.8434C228.874 23.1891 228.355 23.6789 227.913 24.3127V28.7203C227.913 29.719 227.923 30.4872 227.942 31.0249C227.981 31.5435 228.009 31.9276 228.029 32.1773L229.815 32.5806L229.757 33.4736H224.6ZM248.192 33.7041C247.174 33.7041 246.223 33.4736 245.34 33.0127C244.476 32.5326 243.784 31.8316 243.266 30.9097C242.747 29.9879 242.488 28.8643 242.488 27.5392C242.488 26.2716 242.766 25.1481 243.323 24.1686C243.88 23.1891 244.62 22.4209 245.542 21.864C246.483 21.2878 247.529 20.9997 248.682 20.9997C249.527 20.9997 250.209 21.1054 250.727 21.3166C251.265 21.5087 251.659 21.7583 251.908 22.0656C252.177 22.3729 252.312 22.6898 252.312 23.0163C252.312 23.266 252.235 23.4868 252.081 23.6789C251.947 23.8517 251.716 23.9381 251.39 23.9381C251.102 23.9381 250.862 23.8805 250.669 23.7653C250.497 23.6501 250.247 23.4196 249.92 23.0739L248.739 21.7487L249.546 22.0368C248.701 21.8448 247.875 21.912 247.068 22.2385C246.281 22.565 245.628 23.1507 245.11 23.9958C244.591 24.8216 244.332 25.9067 244.332 27.2511C244.332 28.8259 244.735 30.0455 245.542 30.9097C246.367 31.7547 247.385 32.1773 248.595 32.1773C249.421 32.1773 250.093 32.0428 250.612 31.774C251.15 31.4859 251.659 31.0441 252.139 30.4488L252.83 31.0249C252.292 31.9276 251.639 32.5998 250.871 33.0415C250.122 33.4832 249.229 33.7041 248.192 33.7041ZM261.585 33.5889L256.63 22.5266L255.276 22.1232L255.334 21.2302H260.087L260.145 22.1232L258.359 22.5266L262.623 32.1197L261.585 33.5889ZM268.643 21.2302L268.701 22.1232L267.347 22.5266L262.536 32.9839L260.203 37.766C259.819 38.5727 259.406 39.1488 258.964 39.4945C258.541 39.8594 258.023 40.0419 257.408 40.0419C257.024 40.0419 256.698 39.9459 256.429 39.7538C256.16 39.581 256.026 39.3313 256.026 39.0048C256.026 38.7935 256.112 38.5823 256.285 38.371C256.458 38.1598 256.746 37.9869 257.149 37.8525L259.482 37.1323L258.445 38.6015L261.499 32.5806L261.787 32.1485L265.849 22.5266L264.063 22.1232L264.121 21.2302H268.643Z" fill="#37352F"/>
<path d="M353.042 33.7041C352.447 33.7041 351.986 33.4448 351.66 32.9263C351.352 32.4077 351.199 31.7355 351.199 30.9097C351.199 29.5653 351.41 28.2978 351.832 27.107C352.274 25.9163 352.85 24.86 353.561 23.9381C354.272 23.0163 355.049 22.2961 355.894 21.7775C356.759 21.259 357.613 20.9997 358.458 20.9997C358.919 20.9997 359.323 21.115 359.668 21.3454C360.014 21.5759 360.36 21.8832 360.705 22.2673L360.389 23.2468C360.081 22.8819 359.707 22.613 359.265 22.4401C358.842 22.2673 358.401 22.1809 357.94 22.1809C357.172 22.1809 356.48 22.4497 355.866 22.9875C355.251 23.506 354.723 24.1878 354.281 25.0329C353.859 25.8779 353.532 26.7902 353.302 27.7696C353.09 28.7299 352.985 29.6614 352.985 30.564C352.985 31.1018 353.033 31.5243 353.129 31.8316C353.244 32.1197 353.446 32.2637 353.734 32.2637C354.06 32.2637 354.473 32.0332 354.973 31.5723C355.491 31.1114 356.058 30.4584 356.672 29.6133C357.287 28.7683 357.882 27.7792 358.458 26.6461C359.054 25.513 359.582 24.2742 360.043 22.9299L360.187 22.3249L361.771 15.6414L359.524 15.3533L359.668 14.6907L363.356 13.5384L363.73 13.8841C363.596 14.345 363.413 15.0268 363.183 15.9295C362.972 16.8129 362.741 17.7828 362.491 18.8391C362.242 19.8954 361.992 20.9229 361.742 21.9216L360.561 26.7037C360.254 27.9521 360.004 29.1044 359.812 30.1607C359.639 31.1978 359.553 31.966 359.553 32.4653C359.995 32.2349 360.408 31.9468 360.792 31.6011C361.176 31.2554 361.56 30.8425 361.944 30.3624L362.549 31.1114C362.069 31.6683 361.608 32.1389 361.166 32.523C360.725 32.9071 360.312 33.2048 359.928 33.416C359.543 33.6081 359.198 33.7041 358.89 33.7041C358.583 33.7041 358.353 33.6081 358.199 33.416C358.065 33.224 357.997 32.9743 357.997 32.667C357.997 32.3021 358.036 31.8316 358.113 31.2554C358.209 30.66 358.362 29.8918 358.574 28.9508C358.804 27.9905 359.121 26.7805 359.524 25.3209H359.841C359.246 26.9726 358.535 28.4322 357.709 29.6998C356.884 30.9481 356.058 31.9276 355.232 32.6382C354.406 33.3488 353.676 33.7041 353.042 33.7041ZM370.613 33.7041C369.595 33.7041 368.702 33.32 367.934 32.5518C367.185 31.7836 366.81 30.7273 366.81 29.3829C366.81 28.3842 366.974 27.3951 367.3 26.4156C367.646 25.417 368.116 24.5143 368.712 23.7077C369.307 22.8819 370.008 22.2289 370.815 21.7487C371.641 21.2494 372.543 20.9997 373.523 20.9997C374.387 20.9997 375.03 21.2206 375.453 21.6623C375.875 22.0848 376.087 22.5458 376.087 23.0451C376.087 23.6213 375.904 24.1686 375.539 24.6872C375.194 25.2057 374.675 25.7146 373.984 26.214C373.311 26.6941 372.486 27.1647 371.506 27.6256C370.546 28.0865 369.451 28.5378 368.222 28.9796V27.8849C369.49 27.4047 370.584 26.9342 371.506 26.4733C372.428 26.0123 373.139 25.5322 373.638 25.0329C374.137 24.5143 374.387 23.967 374.387 23.3908C374.387 22.9491 374.243 22.6226 373.955 22.4113C373.667 22.2001 373.302 22.0944 372.86 22.0944C372.073 22.0944 371.352 22.3921 370.699 22.9875C370.047 23.5636 369.528 24.3607 369.144 25.3786C368.76 26.3964 368.568 27.5584 368.568 28.8643C368.568 29.9206 368.817 30.7561 369.317 31.3706C369.816 31.9852 370.459 32.2925 371.247 32.2925C371.689 32.2925 372.217 32.1293 372.831 31.8028C373.446 31.4763 374.022 30.9193 374.56 30.1319L375.165 30.9385C374.569 31.7644 373.868 32.4365 373.062 32.9551C372.274 33.4544 371.458 33.7041 370.613 33.7041ZM381.961 33.7041C381.443 33.7041 380.943 33.6177 380.463 33.4448C380.002 33.2528 379.618 33.0031 379.311 32.6958C379.023 32.3885 378.879 32.0524 378.879 31.6875C378.879 31.4763 378.917 31.2842 378.994 31.1114C379.071 30.9385 379.176 30.7753 379.311 30.6216C379.81 31.2362 380.338 31.7067 380.895 32.0332C381.452 32.3405 382 32.4942 382.537 32.4942C383.113 32.4942 383.574 32.3501 383.92 32.062C384.266 31.7547 384.439 31.3034 384.439 30.7081C384.439 30.3624 384.333 29.9975 384.122 29.6133C383.93 29.21 383.555 28.7395 382.998 28.2017C382.326 27.5296 381.817 26.9822 381.471 26.5597C381.145 26.118 380.924 25.7435 380.809 25.4362C380.713 25.1097 380.665 24.7928 380.665 24.4855C380.665 23.8325 380.838 23.2468 381.183 22.7282C381.529 22.2097 382 21.7967 382.595 21.4895C383.21 21.163 383.901 20.9997 384.669 20.9997C385.072 20.9997 385.476 21.0573 385.879 21.1726C386.282 21.2878 386.618 21.451 386.887 21.6623C387.156 21.8736 387.291 22.1232 387.291 22.4113C387.291 22.6034 387.252 22.7666 387.175 22.9011C387.118 23.0355 387.012 23.1795 386.859 23.3332C386.455 22.9491 385.994 22.6514 385.476 22.4401C384.976 22.2289 384.458 22.1232 383.92 22.1232C383.325 22.1232 382.864 22.2961 382.537 22.6418C382.211 22.9683 382.048 23.41 382.048 23.967C382.048 24.1974 382.086 24.4471 382.163 24.716C382.259 24.9656 382.422 25.2441 382.653 25.5514C382.883 25.8587 383.19 26.214 383.574 26.6173C384.208 27.2703 384.679 27.808 384.986 28.2306C385.313 28.6531 385.533 29.018 385.649 29.3253C385.764 29.6133 385.821 29.9206 385.821 30.2471C385.821 30.8617 385.629 31.4379 385.245 31.9756C384.88 32.4942 384.4 32.9167 383.805 33.2432C383.21 33.5505 382.595 33.7041 381.961 33.7041ZM392.445 33.7041C392.138 33.7041 391.898 33.6081 391.725 33.416C391.571 33.2048 391.494 32.9551 391.494 32.667C391.494 32.3981 391.571 31.9276 391.725 31.2554C391.898 30.564 392.099 29.7766 392.33 28.8931C392.56 28.0097 392.791 27.1166 393.021 26.214C393.271 25.3113 393.473 24.5047 393.626 23.7941C393.799 23.0643 393.885 22.5458 393.885 22.2385C393.463 22.4497 393.05 22.7378 392.647 23.1027C392.243 23.4484 391.85 23.8901 391.466 24.4279L390.889 23.5925C391.37 23.0355 391.83 22.565 392.272 22.1809C392.714 21.7967 393.117 21.5087 393.482 21.3166C393.866 21.1054 394.212 20.9997 394.519 20.9997C394.826 20.9997 395.057 21.0957 395.211 21.2878C395.383 21.4799 395.47 21.7487 395.47 22.0944C395.47 22.3633 395.383 22.8434 395.211 23.5348C395.057 24.2262 394.865 25.0233 394.634 25.9259C394.404 26.8286 394.164 27.7312 393.914 28.6339C393.684 29.5173 393.482 30.3143 393.309 31.0249C393.156 31.7163 393.079 32.1965 393.079 32.4653C393.521 32.2349 393.933 31.9468 394.318 31.6011C394.702 31.2554 395.086 30.8425 395.47 30.3624L396.075 31.1114C395.595 31.6683 395.134 32.1389 394.692 32.523C394.25 32.9071 393.837 33.2048 393.453 33.416C393.069 33.6081 392.733 33.7041 392.445 33.7041ZM395.441 17.3987C395.191 17.3987 394.951 17.3027 394.721 17.1106C394.51 16.8994 394.404 16.6497 394.404 16.3616C394.404 15.9583 394.49 15.6222 394.663 15.3533C394.836 15.0845 395.047 14.8828 395.297 14.7484C395.566 14.5947 395.835 14.5179 396.104 14.5179C396.334 14.5179 396.545 14.6139 396.737 14.806C396.949 14.998 397.054 15.2381 397.054 15.5262C397.054 15.9487 396.968 16.304 396.795 16.5921C396.641 16.861 396.44 17.0626 396.19 17.1971C395.96 17.3315 395.71 17.3987 395.441 17.3987ZM403.563 40.0419C402.545 40.0419 401.652 39.917 400.883 39.6674C400.134 39.4177 399.549 39.0624 399.126 38.6015C398.704 38.1405 398.492 37.5932 398.492 36.9594C398.492 36.1912 398.848 35.471 399.558 34.7988C400.25 34.1266 401.191 33.5793 402.382 33.1567L403.332 33.3584C402.276 33.8577 401.488 34.3667 400.97 34.8852C400.471 35.423 400.221 36.028 400.221 36.7001C400.221 37.3723 400.509 37.9293 401.085 38.371C401.661 38.8319 402.564 39.0624 403.793 39.0624C404.715 39.0624 405.541 38.9088 406.271 38.6015C407 38.3134 407.567 37.9197 407.97 37.4203C408.393 36.921 408.604 36.3833 408.604 35.8071C408.604 35.327 408.441 34.9717 408.114 34.7412C407.788 34.5107 407.154 34.2995 406.213 34.1074L402.756 33.3872L402.41 33.272C401.757 33.1183 401.277 32.8879 400.97 32.5806C400.663 32.2733 400.509 31.9372 400.509 31.5723C400.509 31.1498 400.749 30.7081 401.229 30.2471C401.729 29.767 402.564 29.3637 403.735 29.0372L403.995 29.6133C403.38 29.7862 402.948 30.0167 402.698 30.3047C402.449 30.5736 402.324 30.8233 402.324 31.0538C402.324 31.2842 402.401 31.4571 402.554 31.5723C402.708 31.6875 403.044 31.8028 403.563 31.918L407.048 32.7246C408.105 32.9743 408.863 33.3008 409.324 33.7041C409.804 34.1074 410.044 34.6356 410.044 35.2885C410.044 36.1336 409.737 36.921 409.123 37.6508C408.527 38.3806 407.73 38.9568 406.732 39.3793C405.752 39.821 404.696 40.0419 403.563 40.0419ZM405.234 29.815C404.12 29.815 403.207 29.4981 402.497 28.8643C401.805 28.2306 401.46 27.4143 401.46 26.4156C401.46 25.417 401.709 24.5143 402.209 23.7077C402.727 22.8819 403.39 22.2289 404.196 21.7487C405.022 21.2686 405.906 21.0285 406.847 21.0285C407.596 21.0285 408.23 21.1822 408.748 21.4895C409.286 21.7967 409.699 22.2097 409.987 22.7282C410.275 23.2275 410.419 23.7941 410.419 24.4279C410.419 25.4074 410.169 26.31 409.67 27.1358C409.19 27.9425 408.556 28.5955 407.769 29.0948C406.981 29.5749 406.136 29.815 405.234 29.815ZM405.435 28.8931C406.031 28.8931 406.568 28.6915 407.048 28.2882C407.548 27.8849 407.941 27.3471 408.23 26.6749C408.537 25.9835 408.69 25.2249 408.69 24.3991C408.69 23.6117 408.518 22.9971 408.172 22.5554C407.826 22.1136 407.346 21.8928 406.732 21.8928C406.117 21.8928 405.55 22.0944 405.032 22.4977C404.513 22.9011 404.1 23.4484 403.793 24.1398C403.486 24.812 403.332 25.5514 403.332 26.358C403.332 27.1455 403.534 27.7696 403.937 28.2306C404.34 28.6723 404.84 28.8931 405.435 28.8931ZM412.493 22.8434L409.67 22.6418L408.489 21.6335L412.839 21.2302L412.493 22.8434ZM423.87 33.7041C423.563 33.7041 423.332 33.6081 423.179 33.416C423.025 33.2048 422.948 32.9551 422.948 32.667C422.948 32.4365 423.025 32.0044 423.179 31.3706C423.352 30.7369 423.553 30.0071 423.784 29.1812C424.014 28.3362 424.245 27.4911 424.475 26.6461C424.705 25.8011 424.898 25.0425 425.051 24.3703C425.224 23.6981 425.31 23.2179 425.31 22.9299C425.31 22.5266 425.099 22.3249 424.677 22.3249C424.235 22.3249 423.736 22.565 423.179 23.0451C422.641 23.5252 422.084 24.1686 421.508 24.9752C420.951 25.7627 420.403 26.6461 419.866 27.6256C419.347 28.6051 418.886 29.6037 418.483 30.6216C418.08 31.6203 417.782 32.571 417.59 33.4736H416.034C416.38 32.3405 416.706 31.1978 417.014 30.0455C417.321 28.8931 417.59 27.808 417.82 26.7902C418.051 25.7531 418.224 24.8408 418.339 24.0534C418.473 23.2468 418.541 22.6322 418.541 22.2097C418.099 22.4401 417.676 22.7378 417.273 23.1027C416.889 23.4484 416.505 23.8901 416.121 24.4279L415.545 23.5925C416.025 23.0163 416.486 22.5362 416.927 22.152C417.369 21.7679 417.782 21.4799 418.166 21.2878C418.569 21.0957 418.915 20.9997 419.203 20.9997C419.53 20.9997 419.75 21.0957 419.866 21.2878C419.981 21.4607 420.039 21.7103 420.039 22.0368C420.039 22.3825 420 22.8434 419.923 23.4196C419.847 23.9766 419.702 24.7256 419.491 25.6666C419.28 26.6077 418.973 27.8272 418.569 29.3253H418.281C418.627 28.4226 419.049 27.4911 419.549 26.5309C420.048 25.5706 420.596 24.668 421.191 23.8229C421.805 22.9779 422.449 22.2961 423.121 21.7775C423.812 21.259 424.523 20.9997 425.253 20.9997C425.771 20.9997 426.165 21.1534 426.434 21.4607C426.722 21.7679 426.866 22.1713 426.866 22.6706C426.866 22.9779 426.789 23.458 426.636 24.111C426.482 24.764 426.29 25.513 426.059 26.358C425.829 27.1839 425.589 28.0097 425.339 28.8355C425.109 29.6614 424.917 30.4008 424.763 31.0538C424.609 31.7067 424.533 32.1773 424.533 32.4653C424.974 32.2349 425.387 31.9468 425.771 31.6011C426.155 31.2554 426.54 30.8425 426.924 30.3624L427.529 31.1114C427.049 31.6683 426.588 32.1389 426.146 32.523C425.704 32.9071 425.291 33.2048 424.907 33.416C424.523 33.6081 424.177 33.7041 423.87 33.7041Z" fill="#37352F"/>
</svg>
